HIERARCHY
ROOT Hips
{
	OFFSET 0.000000 0.000000 0.000000
	CHANNELS 6 Xposition Yposition Zposition Zrotation Yrotation Xrotation 
	JOINT LHipJoint
	{
		OFFSET 0.000000 0.000000 0.000000
		CHANNELS 3 Zrotation Yrotation Xrotation
		JOINT LeftUpLeg
		{
			OFFSET 1.363060 -1.794630 0.839290
			CHANNELS 3 Zrotation Yrotation Xrotation
			JOINT LeftLeg
			{
				OFFSET 2.448110 -6.726130 0.000000
				CHANNELS 3 Zrotation Yrotation Xrotation
				JOINT LeftFoot
				{
					OFFSET 2.562200 -7.039590 0.000000
					CHANNELS 3 Zrotation Yrotation Xrotation
					JOINT LeftToeBase
					{
						OFFSET 0.157640 -0.433110 2.322550
						CHANNELS 3 Zrotation Yrotation Xrotation
						End Site
						{
							OFFSET 0.000000 0.000000 0.000000
						}
					}
				}
			}
		}
	}
	JOINT RHipJoint
	{
		OFFSET 0.000000 0.000000 0.000000
		CHANNELS 3 Zrotation Yrotation Xrotation
		JOINT RightUpLeg
		{
			OFFSET -1.305520 -1.794630 0.839290
			CHANNELS 3 Zrotation Yrotation Xrotation
			JOINT RightLeg
			{
				OFFSET -2.542530 -6.985550 0.000000
				CHANNELS 3 Zrotation Yrotation Xrotation
				JOINT RightFoot
				{
					OFFSET -2.568260 -7.056230 0.000000
					CHANNELS 3 Zrotation Yrotation Xrotation
					JOINT RightToeBase
					{
						OFFSET -0.164730 -0.452590 2.363150
						CHANNELS 3 Zrotation Yrotation Xrotation
						End Site
						{
							OFFSET 0.000000 0.000000 0.000000
						}
					}
				}
			}
		}
	}
	JOINT LowerBack
	{
		OFFSET 0.000000 0.000000 0.000000
		CHANNELS 3 Zrotation Yrotation Xrotation
		JOINT Spine
		{
			OFFSET 0.028270 2.035590 -0.193380
			CHANNELS 3 Zrotation Yrotation Xrotation
			JOINT Spine1
			{
				OFFSET 0.056720 2.048850 -0.042750
				CHANNELS 3 Zrotation Yrotation Xrotation
				JOINT Neck
				{
					OFFSET 0.000000 0.000000 0.000000
					CHANNELS 3 Zrotation Yrotation Xrotation
					JOINT Neck1
					{
						OFFSET -0.054170 1.746240 0.172020
						CHANNELS 3 Zrotation Yrotation Xrotation
						JOINT Head
						{
							OFFSET 0.104070 1.761360 -0.123970
							CHANNELS 3 Zrotation Yrotation Xrotation
							End Site
							{
								OFFSET 0.000000 0.000000 0.000000
							}
						}
					}
				}
				JOINT LeftShoulder
				{
					OFFSET 0.000000 0.000000 0.000000
					CHANNELS 3 Zrotation Yrotation Xrotation
					JOINT LeftArm
					{
						OFFSET 3.362410 1.200890 -0.311210
						CHANNELS 3 Zrotation Yrotation Xrotation
						JOINT LeftForeArm
						{
							OFFSET 4.983000 -0.000000 -0.000000
							CHANNELS 3 Zrotation Yrotation Xrotation
							JOINT LeftHand
							{
								OFFSET 3.483560 -0.000000 -0.000000
								CHANNELS 3 Zrotation Yrotation Xrotation
								JOINT LeftFingerBase
								{
									OFFSET 0.000000 0.000000 0.000000
									CHANNELS 3 Zrotation Yrotation Xrotation
									JOINT LeftHandIndex1
									{
										OFFSET 0.715260 -0.000000 -0.000000
										CHANNELS 3 Zrotation Yrotation Xrotation
										End Site
										{
											OFFSET 0.000000 0.000000 0.000000
										}
									}
								}
								JOINT LThumb
								{
									OFFSET 0.000000 0.000000 0.000000
									CHANNELS 3 Zrotation Yrotation Xrotation
									End Site
									{
										OFFSET 0.000000 0.000000 0.000000
									}
								}
							}
						}
					}
				}
				JOINT RightShoulder
				{
					OFFSET 0.000000 0.000000 0.000000
					CHANNELS 3 Zrotation Yrotation Xrotation
					JOINT RightArm
					{
						OFFSET -3.136600 1.374050 -0.404650
						CHANNELS 3 Zrotation Yrotation Xrotation
						JOINT RightForeArm
						{
							OFFSET -5.241900 -0.000000 -0.000000
							CHANNELS 3 Zrotation Yrotation Xrotation
							JOINT RightHand
							{
								OFFSET -3.444170 -0.000000 -0.000000
								CHANNELS 3 Zrotation Yrotation Xrotation
								JOINT RightFingerBase
								{
									OFFSET 0.000000 0.000000 0.000000
									CHANNELS 3 Zrotation Yrotation Xrotation
									JOINT RightHandIndex1
									{
										OFFSET -0.622530 -0.000000 -0.000000
										CHANNELS 3 Zrotation Yrotation Xrotation
										End Site
										{
											OFFSET 0.000000 0.000000 0.000000
										}
									}
								}
								JOINT RThumb
								{
									OFFSET 0.000000 0.000000 0.000000
									CHANNELS 3 Zrotation Yrotation Xrotation
									End Site
									{
										OFFSET 0.000000 0.000000 0.000000
									}
								}
							}
						}
					}
				}
			}
		}
	}
}
MOTION
Frames: 8
Frame Time: 0.008333
2.843328 15.076128 -2.018144 -1.935576 -31.114633 -5.614343 16.298283 28.444636 -4.220198 -24.792630 -4.329134 -10.487110 -7.682346 19.320721 27.019110 -1.141110 8.874251 -14.462313 0.000000 0.000000 0.000000 -16.319955 -25.619739 -2.897167 24.078905 1.970585 0.213345 29.565731 -27.546313 27.213494 8.280545 -8.549169 -31.817952 0.000000 0.000000 0.000000 1.784393 0.206354 11.500035 0.399728 1.914948 -3.669498 -3.885165 0.412680 -8.334670 -2.963534 1.372386 1.392205 0.000000 0.000000 0.000000 0.000000 0.000000 0.000000 7.641925 -3.583728 -1.369729 -33.623133 -26.776295 5.116177 103.740409 -65.318023 -0.000000 0.000000 0.000000 0.000000 0.000000 0.000000 0.000000 0.000000 0.000000 0.000000 0.000000 0.000000 0.000000 -8.555638 -0.551671 -8.551691 78.493989 41.057274 42.493958 -103.107037 52.066823 0.000000 0.000000 0.000000 0.000000 0.000000 0.000000 0.000000 0.000000 0.000000 0.000000 0.000000 0.000000 0.000000 
2.840095 15.073846 -2.023220 -1.900401 -31.202269 -5.634634 16.317018 28.471362 -4.190407 -24.749933 -4.300102 -10.495774 -7.771792 19.374494 26.967344 -1.134630 8.928066 -14.456136 0.000000 0.000000 0.000000 -16.293510 -25.661701 -2.936993 24.169269 2.084924 0.145485 29.340690 -27.553127 27.474846 8.309116 -8.513689 -31.866696 0.000000 0.000000 0.000000 1.794583 0.208480 11.510319 0.400026 1.915454 -3.669146 -3.879548 0.412582 -8.332579 -2.973722 1.370646 1.378770 0.000000 0.000000 0.000000 0.000000 0.000000 0.000000 7.634840 -3.543940 -1.387720 -33.657407 -26.801023 5.126208 103.755546 -65.322027 -0.000000 0.000000 0.000000 0.000000 0.000000 0.000000 0.000000 0.000000 0.000000 0.000000 0.000000 0.000000 0.000000 -8.532862 -0.562335 -8.492210 78.499719 40.983783 42.421571 -103.135991 52.208462 0.000000 0.000000 0.000000 0.000000 0.000000 0.000000 0.000000 0.000000 0.000000 0.000000 0.000000 0.000000 0.000000 
2.836861 15.071563 -2.028296 -1.865008 -31.289835 -5.654840 16.335466 28.497899 -4.160703 -24.707119 -4.271018 -10.504528 -7.861408 19.428277 26.915345 -1.128072 8.981985 -14.449822 0.000000 0.000000 0.000000 -16.266305 -25.703413 -2.976585 24.259081 2.199566 0.077341 29.116004 -27.559085 27.735968 8.337799 -8.478895 -31.914720 0.000000 0.000000 0.000000 1.804592 0.210605 11.520423 0.400319 1.915936 -3.668807 -3.873799 0.412444 -8.330337 -2.983944 1.368868 1.365220 0.000000 0.000000 0.000000 0.000000 0.000000 0.000000 7.627651 -3.504190 -1.405865 -33.691521 -26.825684 5.136116 103.770452 -65.326087 -0.000000 0.000000 0.000000 0.000000 0.000000 0.000000 0.000000 0.000000 0.000000 0.000000 0.000000 0.000000 0.000000 -8.509802 -0.572841 -8.432445 78.504211 40.910959 42.348959 -103.164067 52.349818 0.000000 0.000000 0.000000 0.000000 0.000000 0.000000 0.000000 0.000000 0.000000 0.000000 0.000000 0.000000 0.000000 
2.833628 15.069281 -2.033371 -1.829397 -31.377325 -5.674962 16.353625 28.524244 -4.131088 -24.664188 -4.241882 -10.513372 -7.951195 19.482066 26.863112 -1.121433 9.036007 -14.443370 0.000000 0.000000 0.000000 -16.238340 -25.744870 -3.015946 24.348331 2.314494 0.008915 28.891685 -27.564192 27.996850 8.366592 -8.444780 -31.962022 0.000000 0.000000 0.000000 1.814423 0.212728 11.530348 0.400608 1.916393 -3.668479 -3.867919 0.412266 -8.327946 -2.994202 1.367053 1.351556 0.000000 0.000000 0.000000 0.000000 0.000000 0.000000 7.620358 -3.464481 -1.424164 -33.725473 -26.850279 5.145903 103.785126 -65.330202 -0.000000 0.000000 0.000000 0.000000 0.000000 0.000000 0.000000 0.000000 0.000000 0.000000 0.000000 0.000000 0.000000 -8.486460 -0.583190 -8.372406 78.507468 40.838798 42.276118 -103.191255 52.490900 0.000000 0.000000 0.000000 0.000000 0.000000 0.000000 0.000000 0.000000 0.000000 0.000000 0.000000 0.000000 0.000000 
2.830395 15.066999 -2.038447 -1.793571 -31.464733 -5.695002 16.371494 28.550394 -4.101563 -24.621141 -4.212695 -10.522303 -8.041152 19.535861 26.810647 -1.114715 9.090133 -14.436780 0.000000 0.000000 0.000000 -16.209613 -25.786063 -3.055080 24.437007 2.429692 -0.059787 28.667747 -27.568451 28.257479 8.395495 -8.411340 -32.008601 0.000000 0.000000 0.000000 1.824076 0.214848 11.540094 0.400893 1.916824 -3.668163 -3.861908 0.412047 -8.325406 -3.004493 1.365200 1.337783 0.000000 0.000000 0.000000 0.000000 0.000000 0.000000 7.612960 -3.424816 -1.442613 -33.759263 -26.874807 5.155565 103.799569 -65.334373 -0.000000 0.000000 0.000000 0.000000 0.000000 0.000000 0.000000 0.000000 0.000000 0.000000 0.000000 0.000000 0.000000 -8.462836 -0.593384 -8.312099 78.509497 40.767294 42.203046 -103.217545 52.631714 0.000000 0.000000 0.000000 0.000000 0.000000 0.000000 0.000000 0.000000 0.000000 0.000000 0.000000 0.000000 0.000000 
2.827024 15.064610 -2.043344 -1.761088 -31.561606 -5.711625 16.389758 28.579086 -4.070270 -24.575328 -4.187277 -10.537275 -8.122616 19.591335 26.766198 -1.107774 9.147437 -14.427445 0.000000 0.000000 0.000000 -16.182338 -25.831883 -3.093031 24.536345 2.553399 -0.126908 28.441312 -27.564205 28.525433 8.425216 -8.368488 -32.059713 0.000000 0.000000 0.000000 1.828670 0.215869 11.552236 0.400976 1.917288 -3.667524 -3.855456 0.411986 -8.325350 -3.016898 1.363060 1.323477 0.000000 0.000000 0.000000 0.000000 0.000000 0.000000 7.604240 -3.377543 -1.463104 -33.784748 -26.892623 5.165632 103.833613 -65.342656 -0.000000 0.000000 0.000000 0.000000 0.000000 0.000000 0.000000 0.000000 0.000000 0.000000 0.000000 0.000000 0.000000 -8.435395 -0.605815 -8.246514 78.523386 40.677964 42.110475 -103.239401 52.808671 0.000000 0.000000 0.000000 0.000000 0.000000 0.000000 0.000000 0.000000 0.000000 0.000000 0.000000 0.000000 0.000000 
2.823648 15.062216 -2.048233 -1.728523 -31.658774 -5.728051 16.407768 28.607687 -4.038991 -24.529296 -4.161941 -10.552547 -8.203909 19.646894 26.721841 -1.100740 9.204956 -14.417882 0.000000 0.000000 0.000000 -16.154361 -25.877639 -3.130738 24.635534 2.677615 -0.194153 28.215193 -27.558785 28.793411 8.455045 -8.325906 -32.110274 0.000000 0.000000 0.000000 1.832870 0.216849 11.564304 0.401046 1.917731 -3.666878 -3.848815 0.411884 -8.325215 -3.029453 1.360861 1.308992 0.000000 0.000000 0.000000 0.000000 0.000000 0.000000 7.595334 -3.329970 -1.483870 -33.809769 -26.910155 5.175601 103.868165 -65.351195 -0.000000 0.000000 0.000000 0.000000 0.000000 0.000000 0.000000 0.000000 0.000000 0.000000 0.000000 0.000000 0.000000 -8.407412 -0.618183 -8.180343 78.536279 40.588817 42.016817 -103.259784 52.986899 0.000000 0.000000 0.000000 0.000000 0.000000 0.000000 0.000000 0.000000 0.000000 0.000000 0.000000 0.000000 0.000000 
2.820272 15.059823 -2.053123 -1.695736 -31.755855 -5.744417 16.425497 28.636084 -4.007801 -24.483150 -4.136536 -10.567884 -8.285372 19.702473 26.677251 -1.093620 9.262569 -14.408194 0.000000 0.000000 0.000000 -16.125592 -25.923129 -3.168244 24.734120 2.801994 -0.261588 27.989518 -27.552499 29.061102 8.484954 -8.283987 -32.160075 0.000000 0.000000 0.000000 1.836869 0.217828 11.576196 0.401111 1.918149 -3.666238 -3.841995 0.411734 -8.324898 -3.042076 1.358615 1.294347 0.000000 0.000000 0.000000 0.000000 0.000000 0.000000 7.586289 -3.282401 -1.504835 -33.834649 -26.927665 5.185453 103.902441 -65.359833 -0.000000 0.000000 0.000000 0.000000 0.000000 0.000000 0.000000 0.000000 0.000000 0.000000 0.000000 0.000000 0.000000 -8.379025 -0.630393 -8.113792 78.547659 40.500583 41.922823 -103.278805 53.164978 0.000000 0.000000 0.000000 0.000000 0.000000 0.000000 0.000000 0.000000 0.000000 0.000000 0.000000 0.000000 0.000000 
